<svg width="236" height="692" fill="none" xmlns="http://www.w3.org/2000/svg"><path fill-rule="evenodd" clip-rule="evenodd" d="M0 57C0 25.52 25.52 0 57 0h122c31.48 0 57 25.52 57 57v219.843c-44.437 21.956-75 67.737-75 120.657 0 52.794 30.418 98.484 74.684 120.5H0V57zm0 463v17h236v-17H0zm0 21h236v16H0v-16zm0 21v14h236v-14H0zm0 21h236v11H0v-11zm0 20v10h236v-10H0zm0 21h236v9H0v-9zm.707 20c.323 2.038.754 4.04 1.287 6h232.012c.533-1.96.964-3.962 1.287-6H.707zm7.817 21h218.952a57.283 57.283 0 01-3.484 5H12.008a57.142 57.142 0 01-3.484-5zm22.992 21c7.669 3.839 16.324 6 25.484 6h122c9.16 0 17.815-2.161 25.484-6H31.516z" fill="#7A4865"/><circle cx="33.5" cy="74.5" r="16.5" fill="#7A4865"/><circle cx="118" cy="138" r="45" fill="#7A4865"/></svg>